<svg width="61" height="68" viewBox="0 0 61 68" fill="none" xmlns="http://www.w3.org/2000/svg">
<g clip-path="url(#clip0_1_264)">
<path d="M57.3843 18.0481C57.3839 17.0419 57.1687 16.1528 56.7336 15.3898C56.3061 14.6394 55.666 14.0105 54.8073 13.5133C47.7195 9.42641 40.6248 5.35203 33.5392 1.26098C31.629 0.158174 29.7769 0.198379 27.8808 1.31702C25.0597 2.98081 10.935 11.0731 6.72607 13.511C4.9927 14.5144 4.14924 16.0501 4.14883 18.0462C4.14612 26.2651 4.14883 34.4839 4.14612 42.7031C4.14653 43.6872 4.35256 44.5589 4.76856 45.3105C5.19622 46.0836 5.84532 46.7298 6.72378 47.2383C10.9329 49.6761 25.0594 57.7678 27.88 59.432C29.7769 60.5513 31.629 60.5913 33.5398 59.4881C40.6256 55.3968 47.7207 51.3226 54.8096 47.2358C55.688 46.7275 56.3371 46.0809 56.7648 45.3084C57.1802 44.5569 57.3866 43.6851 57.387 42.7008C57.387 42.7008 57.387 26.2672 57.3843 18.0481Z" fill="#5C8DBC"/>
<path d="M30.848 30.2944L4.76855 45.3104C5.19622 46.0835 5.84532 46.7297 6.72378 47.2382C10.9329 49.676 25.0594 57.7677 27.88 59.4319C29.7769 60.5512 31.629 60.5912 33.5398 59.488C40.6256 55.3967 47.7207 51.3225 54.8096 47.2357C55.688 46.7274 56.3371 46.0808 56.7648 45.3083L30.848 30.2944Z" fill="#1A4674"/>
<path d="M23.1235 34.7423C24.6411 37.3916 27.4939 39.1785 30.7665 39.1785C34.0593 39.1785 36.9284 37.3689 38.4383 34.6913L30.848 30.2944L23.1235 34.7423Z" fill="#1A4674"/>
<path d="M57.3843 18.0479C57.3839 17.0418 57.1687 16.1527 56.7336 15.3896L30.848 30.2944L56.7648 45.3083C57.1802 44.5567 57.3866 43.6849 57.387 42.7007C57.387 42.7007 57.387 26.2671 57.3843 18.0479Z" fill="#1B598E"/>
<path d="M55.9592 31.3681H53.934V33.3937H51.9084V31.3681H49.8834V29.3431H51.9084V27.3179H53.934V29.3431H55.9592V31.3681ZM48.5693 31.3681H46.5443V33.3937H44.5191V31.3681H42.4939V29.3431H44.5191V27.3179H46.5443V29.3431H48.5693V31.3681Z" fill="white"/>
<path d="M38.4383 34.6915C36.9285 37.3692 34.0594 39.1788 30.7666 39.1788C27.494 39.1788 24.6412 37.3919 23.1236 34.7425C22.3612 33.4132 21.9609 31.9071 21.9625 30.3747C21.9625 25.5124 25.9044 21.5707 30.7666 21.5707C34.0181 21.5707 36.856 23.3354 38.381 25.9576L46.0763 21.5264C43.0176 16.2465 37.3072 12.6943 30.7666 12.6943C21.0017 12.6943 13.0861 20.6102 13.0861 30.3747C13.0861 33.5781 13.9383 36.5822 15.4277 39.1734C18.4786 44.4812 24.2054 48.0552 30.7666 48.0552C37.3399 48.0552 43.0756 44.4668 46.1221 39.1434L38.4383 34.6915Z" fill="white"/>
</g>
<defs>
<clipPath id="clip0_1_264">
<rect width="53.328" height="60" fill="white" transform="translate(4.14612 0.399902)"/>
</clipPath>
</defs>
</svg>
