<svg width="61" height="68" viewBox="0 0 61 68" fill="none" xmlns="http://www.w3.org/2000/svg">
<g clip-path="url(#clip0_1_1973)">
<path d="M56.0024 0.399902H5.37744C2.78861 0.399902 0.689941 2.49857 0.689941 5.0874V55.7124C0.689941 58.3012 2.78861 60.3999 5.37744 60.3999H56.0024C58.5913 60.3999 60.6899 58.3012 60.6899 55.7124V5.0874C60.6899 2.49857 58.5913 0.399902 56.0024 0.399902Z" fill="#3178C6"/>
<path fill-rule="evenodd" clip-rule="evenodd" d="M35.9676 47.3862V53.8597C37.0204 54.3992 38.2656 54.8037 39.7031 55.0735C41.1405 55.3433 42.6555 55.478 44.2483 55.478C45.8003 55.478 47.275 55.3297 48.6719 55.0329C50.0688 54.7362 51.2938 54.2473 52.3464 53.5665C53.3992 52.8854 54.2327 51.9952 54.847 50.896C55.461 49.797 55.7681 48.4383 55.7681 46.82C55.7681 45.6467 55.5925 44.6183 55.2417 43.7349C54.8908 42.8515 54.3845 42.0659 53.7231 41.3783C53.062 40.6904 52.2688 40.0735 51.3445 39.5272C50.4199 38.9811 49.3771 38.4652 48.2163 37.9798C47.366 37.629 46.6035 37.2887 45.9285 36.9582C45.2538 36.6277 44.68 36.2907 44.2078 35.9466C43.7353 35.6028 43.3708 35.2386 43.1144 34.8542C42.858 34.4698 42.7298 34.0351 42.7298 33.5494C42.7298 33.1044 42.8444 32.7033 43.0738 32.3459C43.3033 31.9885 43.6274 31.6817 44.0458 31.4255C44.4642 31.1691 44.977 30.9704 45.5845 30.8286C46.1917 30.687 46.8667 30.6162 47.609 30.6162C48.149 30.6162 48.7192 30.6568 49.3197 30.7376C49.9204 30.8185 50.5244 30.9432 51.1319 31.1119C51.7392 31.2804 52.3295 31.4928 52.9033 31.7492C53.4768 32.0054 54.0067 32.3021 54.4926 32.6391V26.5906C53.5073 26.213 52.4308 25.9332 51.2634 25.7511C50.096 25.569 48.7563 25.478 47.2445 25.478C45.7059 25.478 44.2483 25.6433 42.8716 25.9737C41.4949 26.304 40.2834 26.8198 39.2374 27.5211C38.1913 28.2226 37.3647 29.116 36.7572 30.2016C36.1499 31.2872 35.8462 32.5852 35.8462 34.0958C35.8462 36.0242 36.4028 37.6695 37.5166 39.0317C38.6301 40.3937 40.3204 41.5468 42.588 42.4908C43.4788 42.8551 44.309 43.2122 45.0782 43.5631C45.8477 43.9137 46.5124 44.2777 47.0725 44.6553C47.6327 45.0329 48.0747 45.4442 48.3986 45.8893C48.7225 46.3344 48.8845 46.8401 48.8845 47.4066C48.8845 47.8245 48.7832 48.2124 48.5807 48.5698C48.3785 48.927 48.0712 49.2373 47.6596 49.5003C47.2481 49.7633 46.735 49.9688 46.121 50.1172C45.5069 50.2655 44.7881 50.3398 43.9647 50.3398C42.561 50.3398 41.171 50.0937 39.7942 49.6013C38.4173 49.1091 37.1418 48.3708 35.9676 47.3862ZM25.1779 31.2769H33.5024V25.9468H10.2993V31.2769H18.5832V55.0093H25.1779V31.2769Z" fill="white"/>
</g>
<defs>
<clipPath id="clip0_1_1973">
<rect width="60" height="60" fill="white" transform="translate(0.689941 0.399902)"/>
</clipPath>
</defs>
</svg>
