<svg width="61" height="68" viewBox="0 0 61 68" fill="none" xmlns="http://www.w3.org/2000/svg">
<g clip-path="url(#clip0_1_286)">
<path d="M43.2749 44.3599C43.2249 44.4999 43.0524 44.6549 43.0524 44.6549C57.9174 40.7024 52.4524 30.7224 45.3449 33.2499C44.7199 33.4749 44.3924 33.9924 44.3924 33.9924C44.3924 33.9924 44.7874 33.8324 45.6649 33.6474C49.2599 32.8874 54.4049 38.5099 43.2749 44.3599ZM11.7274 56.2099C35.4074 60.0924 54.8899 54.4599 48.7449 51.6599C48.7449 51.6599 50.4224 53.0574 46.8999 54.1374C40.1949 56.1924 18.9999 56.8099 13.1124 54.2199C10.9974 53.2874 14.9674 51.9949 16.2124 51.7249C17.5124 51.4399 18.2574 51.4924 18.2574 51.4924C15.9074 49.8149 3.0449 54.7849 11.7274 56.2099Z" fill="#4E7D9D"/>
<path d="M52.5048 54.715C52.5048 54.715 51.7573 56.6525 43.6748 58.1925C34.5598 59.9275 23.3098 59.725 16.6423 58.6125C16.6423 58.6125 18.0098 59.755 25.0273 60.21C35.7123 60.9025 52.1173 59.8275 52.5048 54.715ZM38.6173 41.7725C31.7523 43.11 27.7873 43.0625 22.7648 42.54C18.8848 42.1325 21.4248 40.23 21.4248 40.23C11.3773 43.6 27.0173 47.4275 41.0548 43.275C39.5648 42.745 38.6173 41.7725 38.6173 41.7725Z" fill="#4E7D9D"/>
<path d="M23.7374 19.4674C20.9699 23.6699 25.0974 28.1824 30.7174 33.3149C28.5249 28.3049 21.0899 23.9174 30.7199 16.2249C42.7299 6.6349 36.5649 0.399902 36.5649 0.399902C39.0549 10.3049 27.7999 13.2949 23.7374 19.4674Z" fill="#F2941B"/>
<path d="M22.8475 46.7998C13.7275 49.3773 28.395 54.7048 40.01 49.6723C38.1075 48.9223 36.745 48.0573 36.745 48.0573C31.5675 49.0523 29.165 49.1298 24.4625 48.5848C20.58 48.1348 22.8475 46.7998 22.8475 46.7998ZM40.61 37.0748C41.75 36.2873 43.325 35.6073 43.325 35.6073C43.325 35.6073 38.8475 36.4198 34.3825 36.7998C28.9225 37.2623 23.06 37.3523 20.1225 36.9548C13.155 36.0148 23.9375 33.4248 23.9375 33.4248C23.9375 33.4248 19.75 33.1398 14.605 35.6548C8.5125 38.6323 29.665 39.9873 40.61 37.0748Z" fill="#4E7D9D"/>
<path d="M16.7223 51.1499C12.6998 51.1499 4.2748 54.9849 11.7298 56.2099C17.4598 57.1499 22.9448 57.5324 27.8798 57.5324C28.8173 57.5324 29.7348 57.5199 30.6298 57.4924V55.9049C29.8098 55.9224 28.9873 55.9299 28.1698 55.9299C21.8423 55.9299 15.8398 55.4199 13.1148 54.2199C10.9998 53.2874 14.9698 51.9949 16.2148 51.7249C17.1648 51.5174 17.8173 51.4874 18.1023 51.4874C18.2073 51.4874 18.2598 51.4924 18.2598 51.4924C17.9298 51.2549 17.3848 51.1499 16.7223 51.1499ZM16.6423 58.6124C16.6473 58.6124 18.0198 59.7549 25.0273 60.2099C26.7723 60.3224 28.6723 60.3899 30.6273 60.3974V59.4524C29.9773 59.4649 29.3298 59.4724 28.6873 59.4724C24.1123 59.4724 19.8498 59.1474 16.6423 58.6124ZM21.4248 40.2324C14.5073 42.5524 19.7673 45.0899 28.2973 45.0899C29.0523 45.0899 29.8298 45.0699 30.6298 45.0274V42.8249C29.9023 42.8624 29.1973 42.8799 28.5048 42.8799C26.5923 42.8799 24.7623 42.7474 22.7648 42.5399C18.8848 42.1349 21.4248 40.2324 21.4248 40.2324Z" fill="#446D89"/>
<path d="M30.6299 13.0176C28.0699 15.0851 25.3424 17.0276 23.7374 19.4676C20.9849 23.6476 25.0549 28.1376 30.6299 33.2351V33.1226C28.3449 28.2076 21.2549 23.8476 30.6299 16.2951V13.0176Z" fill="#D38118"/>
<path d="M22.8475 46.8C16.46 48.605 21.74 51.7575 29.465 51.7575C29.8475 51.7575 30.2375 51.75 30.63 51.7325V48.8875C30.1925 48.91 29.7575 48.92 29.3225 48.92C27.8525 48.92 26.34 48.8025 24.46 48.5825C20.58 48.135 22.8475 46.8 22.8475 46.8ZM23.53 33.415C22.36 33.415 18.8 33.605 14.605 35.655C10.8775 37.4775 17.3575 38.6925 25.455 38.6925C27.1375 38.6925 28.8875 38.64 30.6325 38.53V37.0575C28.7575 37.155 26.925 37.2075 25.2675 37.2075C23.19 37.2075 21.3875 37.1275 20.125 36.955C13.155 36.015 23.9375 33.425 23.9375 33.425C23.9375 33.425 23.795 33.415 23.53 33.415Z" fill="#446D89"/>
<path d="M43.9975 12.6548C43.9975 12.6548 23.69 17.7823 33.3875 29.0873C36.25 32.4198 32.635 35.4198 32.635 35.4198C32.635 35.4198 39.9 31.6248 36.5625 26.8748C33.45 22.4448 31.06 20.2448 43.9975 12.6548Z" fill="#F2941B"/>
<path d="M34.9949 16.6748C31.1624 19.3698 28.5649 23.4648 33.3899 29.0873C36.2524 32.4198 32.6374 35.4198 32.6374 35.4198C32.6374 35.4198 33.8099 34.8073 34.9949 33.7673V24.5848C33.9999 22.9448 33.6274 21.4498 34.9949 19.5173V16.6748Z" fill="#D38118"/>
</g>
<defs>
<clipPath id="clip0_1_286">
<rect width="60" height="60" fill="white" transform="translate(0.629883 0.399902)"/>
</clipPath>
</defs>
</svg>
