<svg width="61" height="68" viewBox="0 0 61 68" fill="none" xmlns="http://www.w3.org/2000/svg">
<g clip-path="url(#clip0_1_302)">
<path d="M51.98 0.399902H9.97998C5.00942 0.399902 0.97998 4.42934 0.97998 9.3999V51.3999C0.97998 56.3705 5.00942 60.3999 9.97998 60.3999H51.98C56.9505 60.3999 60.98 56.3705 60.98 51.3999V9.3999C60.98 4.42934 56.9505 0.399902 51.98 0.399902Z" fill="#F7DF1E"/>
<path d="M38.9487 43.7593C40.1206 45.7515 41.7612 47.1577 44.4565 47.1577C46.8003 47.1577 48.3237 45.9858 48.3237 44.3452C48.3237 42.4702 46.8003 41.7671 44.2222 40.5952L42.8159 40.0093C38.7144 38.2515 36.019 36.1421 36.019 31.5718C36.019 27.353 39.1831 24.0718 44.2222 24.0718C47.855 24.0718 50.4331 25.3608 52.1909 28.6421L47.855 31.4546C46.9175 29.6968 45.8628 28.9937 44.2222 28.9937C42.5815 28.9937 41.5269 30.0483 41.5269 31.4546C41.5269 33.0952 42.5815 33.7983 45.0425 34.853L46.4487 35.439C51.2534 37.5483 53.9487 39.5405 53.9487 44.3452C53.9487 49.3843 49.9644 52.1968 44.5737 52.1968C39.3003 52.1968 35.9019 49.7358 34.2612 46.4546L38.9487 43.7593ZM19.0269 44.228C19.9644 45.7515 20.6675 47.1577 22.6597 47.1577C24.5347 47.1577 25.7065 46.4546 25.7065 43.6421V24.189H31.3315V43.4077C31.3315 49.2671 27.9331 51.8452 22.894 51.8452C18.3237 51.8452 15.7456 49.5015 14.4565 46.689L19.0269 44.228Z" fill="black"/>
</g>
<defs>
<clipPath id="clip0_1_302">
<rect width="60" height="60" fill="white" transform="translate(0.97998 0.399902)"/>
</clipPath>
</defs>
</svg>
