<svg width="26" height="27" viewBox="0 0 26 27" fill="none" xmlns="http://www.w3.org/2000/svg">
<path d="M20.2647 1.86292H23.3696C24.0515 1.86292 24.6043 2.4157 24.6043 3.09762V6.20245C24.6043 6.88439 24.0515 7.43721 23.3696 7.43721H20.2647C19.5829 7.43721 19.03 6.8844 19.03 6.20245V3.09762C19.03 2.41569 19.5828 1.86292 20.2647 1.86292Z" stroke="#088493"/>
<path d="M11.2108 8.12225H13.9373C15.0655 8.18637 16.1387 8.63085 16.9818 9.38325L17.0841 9.49688C17.8404 10.3375 18.2854 11.4122 18.345 12.5414V15.2565C18.345 15.7295 18.5329 16.1832 18.8674 16.5177C19.2019 16.8522 19.6556 17.0401 20.1286 17.0401H23.3209C23.7938 17.0401 24.2475 16.8522 24.582 16.5177C24.9165 16.1832 25.1044 15.7295 25.1044 15.2565V12.0643C25.1044 11.5913 24.9165 11.1376 24.582 10.8031C24.2475 10.4687 23.7938 10.2807 23.3209 10.2807H20.6057C19.4765 10.2211 18.4019 9.77604 17.5612 9.01974L17.4476 8.91749C16.6937 8.07532 16.2489 7.00158 16.1866 5.87293V3.14647C16.1866 2.67347 15.9987 2.2198 15.6642 1.88532C15.3297 1.55084 14.8761 1.36292 14.403 1.36292H11.2108C10.7378 1.36292 10.2841 1.55084 9.94965 1.88532C9.61517 2.2198 9.42725 2.67347 9.42725 3.14647V6.33874C9.42725 6.81174 9.61517 7.26537 9.94965 7.59985C10.2841 7.93433 10.7378 8.12225 11.2108 8.12225Z" fill="#088493"/>
<path d="M23.8321 19.299H21.1312C20.007 19.2261 18.9418 18.7596 18.1153 17.9785L17.8115 17.6685C17.0623 16.8187 16.6214 15.7324 16.5624 14.5909V11.835C16.5594 11.3578 16.3723 10.901 16.0416 10.5635C15.7109 10.2261 15.2632 10.0351 14.7955 10.0322H12.0947C10.9797 9.98427 9.91484 9.54637 9.07884 8.792L8.77501 8.48194C8.02579 7.63219 7.58491 6.54591 7.52584 5.40446V2.66005C7.52584 2.1819 7.33969 1.72332 7.0084 1.3852C6.67705 1.04713 6.22767 0.857178 5.75908 0.857178H2.59684C2.1283 0.857178 1.67887 1.04713 1.34758 1.3852C1.01623 1.72332 0.830078 2.1819 0.830078 2.66005V5.88676C0.830078 6.36492 1.01623 6.8235 1.34758 7.16157C1.67887 7.49969 2.1283 7.68964 2.59684 7.68964H5.28644C6.42212 7.74264 7.50435 8.19733 8.34738 8.97572L8.65121 9.28578C9.39805 10.137 9.83858 11.2224 9.90033 12.3632V15.1192C9.90326 15.5964 10.0904 16.0532 10.4211 16.3906C10.7517 16.7281 11.1995 16.919 11.6671 16.922H14.3679C15.4742 16.9927 16.5247 17.4417 17.3501 18.1966L17.6539 18.5067C18.4008 19.3579 18.8413 20.4434 18.9031 21.5842V24.3401C18.906 24.8173 19.0931 25.2741 19.4238 25.6116C19.7545 25.949 20.2022 26.1399 20.6698 26.1429H23.8433C24.311 26.1399 24.7587 25.949 25.0894 25.6116C25.4201 25.2741 25.6072 24.8173 25.6101 24.3401V21.1019C25.6071 20.6227 25.4185 20.1641 25.0854 19.8263C24.7523 19.4886 24.3017 19.299 23.8321 19.299Z" fill="#13B6AD"/>
<path d="M2.69824 19.563H6.04192C6.83307 19.563 7.41009 20.15 7.41009 20.7977V23.9026C7.41009 24.5503 6.83309 25.1373 6.04192 25.1373H2.69824C1.90707 25.1373 1.33008 24.5503 1.33008 23.9026V20.7977C1.33008 20.15 1.90709 19.563 2.69824 19.563Z" stroke="#088493"/>
<path d="M14.7237 18.8779H12.0086C10.8793 18.8182 9.8047 18.3732 8.964 17.6169L8.85041 17.5147C8.09169 16.6665 7.64666 15.5839 7.58941 14.4474V11.7209C7.5838 11.2615 7.40113 10.822 7.07945 10.494C6.75776 10.166 6.32189 9.9747 5.86265 9.96008H2.61363C2.14059 9.96008 1.68696 10.148 1.35248 10.4825C1.018 10.817 0.830078 11.2706 0.830078 11.7436V14.9359C0.830078 15.4089 1.018 15.8625 1.35248 16.1971C1.68696 16.5315 2.14059 16.7194 2.61363 16.7194H5.34009C6.46829 16.7835 7.54152 17.228 8.38465 17.9804L8.4869 18.094C9.2432 18.9347 9.68828 20.0093 9.74785 21.1386V23.8536C9.74785 24.0888 9.79438 24.3217 9.8847 24.5388C9.97507 24.7559 10.1075 24.9531 10.2743 25.1188C10.4411 25.2846 10.6391 25.4157 10.8568 25.5047C11.0745 25.5937 11.3076 25.6387 11.5428 25.6372H14.7237C15.1967 25.6372 15.6504 25.4493 15.9848 25.1148C16.3193 24.7804 16.5072 24.3267 16.5072 23.8536V20.6614C16.5072 20.1884 16.3193 19.7347 15.9848 19.4003C15.6504 19.0658 15.1967 18.8779 14.7237 18.8779Z" fill="#088493"/>
</svg>
