<svg width="60" height="67" viewBox="0 0 60 67" fill="none" xmlns="http://www.w3.org/2000/svg">
<path fill-rule="evenodd" clip-rule="evenodd" d="M47.0702 3.19883C35.7185 -3.14233 21.2852 0.560317 14.4296 11.7477L3.88177 28.9602C-3.14887 40.4331 0.45235 55.4333 11.9253 62.4639C23.3983 69.4946 38.3985 65.8933 45.4291 54.4204L55.9769 37.2079C62.8325 26.0205 59.579 11.4794 48.7755 4.24383L47.1492 6.89764C46.8607 7.36854 46.245 7.51635 45.7741 7.22778C45.3032 6.93921 45.1554 6.32354 45.4439 5.85264L47.0702 3.19883ZM35.5103 25.8907C35.7988 25.4198 35.651 24.8041 35.1801 24.5156C34.7092 24.227 34.0936 24.3748 33.805 24.8457L32.1452 27.5543L14.0047 16.4377C13.5338 16.1492 12.9181 16.297 12.6295 16.7679C12.341 17.2388 12.4888 17.8545 12.9597 18.143L50.7974 41.33C51.2683 41.6186 51.884 41.4708 52.1726 40.9999C52.4611 40.529 52.3133 39.9133 51.8424 39.6247L33.8505 28.5993L35.5103 25.8907ZM40.4431 9.93188C41.3972 8.37483 43.433 7.88609 44.99 8.84025C46.5471 9.79441 47.0358 11.8301 46.0816 13.3872L40.8077 21.9934C39.8536 23.5505 37.8178 24.0392 36.2608 23.085C34.7038 22.1309 34.215 20.0952 35.1692 18.5381L40.4431 9.93188Z" fill="url(#paint0_linear_1_2186)"/>
<defs>
<linearGradient id="paint0_linear_1_2186" x1="-5.21065" y1="43.7976" x2="60.3474" y2="30.0884" gradientUnits="userSpaceOnUse">
<stop stop-color="#088493"/>
<stop offset="1" stop-color="#13B6AD"/>
</linearGradient>
</defs>
</svg>
