<svg width="50" height="10" viewBox="0 0 50 10" fill="none" xmlns="http://www.w3.org/2000/svg">
<path fill-rule="evenodd" clip-rule="evenodd" d="M5.6842 9.25863V0.865068H3.60362L0.392334 2.20349L1.29685 4.13178L3.08348 3.36047V9.25863H5.6842ZM14.4136 9.25863V0.865068H12.333L9.12169 2.20349L10.0263 4.13178L11.8128 3.36047V9.25863H14.4136ZM31.8951 9.53086C35.2195 9.53086 36.5312 8.41929 36.5312 6.46836C36.5312 4.69889 35.5134 3.95034 33.3424 3.99574H30.6738V3.29244H35.8074V0.910464H28.1862V6.10533H32.8675C33.6364 6.10533 33.9303 6.19613 33.9303 6.55916C33.9303 6.94482 33.5459 7.14889 31.7593 7.14889C30.1537 7.14889 29.43 7.12626 28.5932 6.51376L27.3267 8.44191C28.548 9.2814 29.6335 9.53086 31.8951 9.53086ZM49.4669 5.26599V4.88047C49.4669 2.27166 48.1327 0.638227 44.4011 0.615601C41.8456 0.615601 39.7877 1.1827 39.7877 3.56468C39.7877 5.49283 41.0767 6.28692 43.5643 6.28692C45.2379 6.28692 46.2781 6.03731 46.8662 5.561C46.821 6.71798 45.7355 7.05824 44.2428 7.05824C43.0669 7.05824 42.117 7.03547 41.6647 6.40034L39.8104 8.03363C41.0767 9.2814 42.3657 9.50824 44.3786 9.50824C48.0875 9.50824 49.4669 7.87481 49.4669 5.26599ZM44.4011 3.08823C45.7355 3.08823 46.4817 3.24704 46.4817 3.70073C46.4817 4.13178 45.7355 4.31323 44.4011 4.336C43.0669 4.336 42.3657 4.15441 42.3657 3.70073C42.3657 3.26982 43.0669 3.08823 44.4011 3.08823Z" fill="#088192"/>
</svg>
