<svg width="168" height="31" viewBox="0 0 168 31" fill="none" xmlns="http://www.w3.org/2000/svg">
<path fill-rule="evenodd" clip-rule="evenodd" d="M18.1956 29.7441V0.966155H11.0851L0.110229 5.55502L3.20147 12.1663L9.30744 9.5218V29.7441H18.1956ZM48.0289 29.7441V0.966155H40.9184L29.9435 5.55502L33.0353 12.1663L39.1407 9.5218V29.7441H48.0289ZM107.774 30.6775C119.135 30.6775 123.618 26.8663 123.618 20.1775C123.618 14.1107 120.139 11.5442 112.72 11.6999H103.6V9.28858H121.144V1.1218H95.098V18.9328H111.097C113.724 18.9328 114.729 19.2441 114.729 20.4887C114.729 21.811 113.415 22.5107 107.309 22.5107C101.822 22.5107 99.3489 22.4331 96.4891 20.3331L92.1608 26.9439C96.3346 29.8221 100.044 30.6775 107.774 30.6775ZM167.827 16.055V14.7333C167.827 5.78874 163.267 0.188416 150.514 0.11084C141.78 0.11084 134.747 2.05519 134.747 10.222C134.747 16.8328 139.152 19.5554 147.654 19.5554C153.373 19.5554 156.929 18.6995 158.938 17.0665C158.784 21.0333 155.074 22.1999 149.973 22.1999C145.954 22.1999 142.708 22.1218 141.162 19.9442L134.825 25.5441C139.152 29.8221 143.558 30.5999 150.437 30.5999C163.112 30.5999 167.827 24.9995 167.827 16.055ZM150.514 8.58842C155.074 8.58842 157.624 9.13293 157.624 10.6884C157.624 12.1663 155.074 12.7884 150.514 12.8665C145.954 12.8665 143.558 12.2439 143.558 10.6884C143.558 9.211 145.954 8.58842 150.514 8.58842Z" fill="#088192"/>
</svg>
