<svg width="18" height="15" viewBox="0 0 18 15" fill="none" xmlns="http://www.w3.org/2000/svg">
<path d="M7.4383 2.03973C7.83859 2.19611 7.83859 2.75704 7.4383 2.91332L6.36789 3.33137C6.24568 3.37916 6.14894 3.47493 6.10074 3.59596L5.67858 4.65585C5.52071 5.05224 4.95421 5.05224 4.79634 4.65585L4.37417 3.59596C4.32597 3.47493 4.22924 3.37916 4.10703 3.33137L3.03662 2.91342C2.63633 2.75704 2.63633 2.19611 3.03661 2.03973L4.10703 1.62177C4.22924 1.57398 4.32597 1.47821 4.37417 1.35719L4.79634 0.297293C4.95421 -0.0990978 5.52071 -0.0990978 5.67858 0.297293L6.10074 1.35719C6.14894 1.47821 6.24568 1.57398 6.36789 1.62177L7.4383 2.03973Z" fill="white"/>
<path d="M2.80517 5.76297C3.20545 5.91925 3.20545 6.48028 2.80517 6.63657L2.41489 6.78897C2.29268 6.83675 2.19593 6.93253 2.14774 7.05355L1.99382 7.43994C1.83594 7.83633 1.2694 7.83633 1.11157 7.43994L0.957647 7.05355C0.909467 6.93253 0.812716 6.83675 0.690554 6.78897L0.300224 6.63657C-0.100075 6.48028 -0.100075 5.91925 0.300224 5.76297L0.690555 5.61057C0.812716 5.56279 0.909467 5.46702 0.957647 5.34599L1.11157 4.9595C1.2694 4.56321 1.83594 4.56321 1.99382 4.9595L2.14774 5.34599C2.19593 5.46702 2.29268 5.56279 2.41489 5.61057L2.80517 5.76297Z" fill="white"/>
<path d="M17.269 12.3679C17.6693 12.5242 17.6693 13.0852 17.269 13.2415L16.8788 13.3939C16.7565 13.4416 16.6598 13.5374 16.6116 13.6584L16.4577 14.0449C16.2998 14.4413 15.7333 14.4413 15.5755 14.0449L15.4215 13.6584C15.3734 13.5374 15.2766 13.4416 15.1543 13.3939L14.7641 13.2415C14.3638 13.0852 14.3638 12.5242 14.7641 12.3679L15.1543 12.2155C15.2766 12.1677 15.3734 12.0719 15.4215 11.9509L15.5755 11.5645C15.7333 11.1681 16.2998 11.1681 16.4577 11.5645L16.6116 11.9509C16.6598 12.0719 16.7565 12.1677 16.8788 12.2155L17.269 12.3679Z" fill="white"/>
</svg>
