<svg width="28" height="6" viewBox="0 0 28 6" fill="none" xmlns="http://www.w3.org/2000/svg">
<path fill-rule="evenodd" clip-rule="evenodd" d="M3.66177 5.28738V0.662364H2.5186L0.75415 1.39986L1.25114 2.46239L2.2328 2.03738V5.28738H3.66177ZM8.45812 5.28738V0.662364H7.31494L5.5505 1.39986L6.04756 2.46239L7.02915 2.03738V5.28738H8.45812ZM18.0634 5.43739C19.8899 5.43739 20.6107 4.82489 20.6107 3.74989C20.6107 2.77488 20.0515 2.36241 18.8586 2.38743H17.3923V1.9999H20.213V0.687378H16.0255V3.54986H18.5976C19.0201 3.54986 19.1816 3.59988 19.1816 3.79992C19.1816 4.01243 18.9704 4.12488 17.9888 4.12488C17.1065 4.12488 16.7089 4.11241 16.2492 3.77491L15.5533 4.83736C16.2243 5.29993 16.8207 5.43739 18.0634 5.43739ZM27.7182 3.08736V2.87493C27.7182 1.43742 26.9851 0.53737 24.9348 0.524902C23.5307 0.524902 22.3999 0.837387 22.3999 2.1499C22.3999 3.21235 23.1082 3.64991 24.475 3.64991C25.3945 3.64991 25.9661 3.51237 26.2892 3.24992C26.2644 3.88743 25.668 4.07493 24.8478 4.07493C24.2017 4.07493 23.6798 4.06238 23.4313 3.71241L22.4124 4.61238C23.1082 5.29993 23.8165 5.42493 24.9224 5.42493C26.9603 5.42493 27.7182 4.52487 27.7182 3.08736ZM24.9348 1.88737C25.668 1.88737 26.078 1.97488 26.078 2.22487C26.078 2.46239 25.668 2.56237 24.9348 2.57492C24.2017 2.57492 23.8165 2.47486 23.8165 2.22487C23.8165 1.98743 24.2017 1.88737 24.9348 1.88737Z" fill="#088192"/>
</svg>
