<svg width="40" height="33" viewBox="0 0 40 33" fill="none" xmlns="http://www.w3.org/2000/svg">
<path d="M16.9348 4.69322C17.8462 5.05304 17.8462 6.34369 16.9348 6.70328L14.4978 7.66518C14.2196 7.77514 13.9993 7.9955 13.8896 8.27396L12.9285 10.7127C12.569 11.6247 11.2793 11.6247 10.9199 10.7127L9.9587 8.27396C9.84896 7.9955 9.62873 7.77514 9.35049 7.66518L6.91349 6.70351C6.00215 6.34369 6.00215 5.05304 6.91347 4.69322L9.35049 3.73154C9.62873 3.62159 9.84896 3.40123 9.9587 3.12276L10.9199 0.684045C11.2793 -0.228015 12.569 -0.228015 12.9285 0.684045L13.8896 3.12276C13.9993 3.40123 14.2196 3.62159 14.4978 3.73154L16.9348 4.69322Z" fill="#1C274C"/>
<path d="M6.38655 13.2601C7.29786 13.6197 7.29786 14.9105 6.38654 15.2701L5.49799 15.6208C5.21975 15.7307 4.9995 15.9511 4.88978 16.2296L4.53935 17.1186C4.1799 18.0307 2.89006 18.0307 2.53072 17.1186L2.18028 16.2296C2.07059 15.9511 1.85032 15.7307 1.57219 15.6208L0.683522 15.2701C-0.227841 14.9105 -0.227841 13.6197 0.683522 13.2601L1.57219 12.9094C1.85032 12.7995 2.07059 12.5791 2.18028 12.3006L2.53072 11.4114C2.89006 10.4995 4.1799 10.4995 4.53935 11.4114L4.88978 12.3006C4.9995 12.5791 5.21975 12.7995 5.49799 12.9094L6.38655 13.2601Z" fill="#1C274C"/>
<path d="M39.3165 28.4573C40.2278 28.817 40.2278 30.1077 39.3165 30.4674L38.428 30.8181C38.1497 30.9279 37.9294 31.1483 37.8197 31.4268L37.4693 32.316C37.1099 33.228 35.8201 33.228 35.4608 32.316L35.1103 31.4268C35.0006 31.1483 34.7804 30.9279 34.502 30.8181L33.6136 30.4674C32.7022 30.1077 32.7022 28.817 33.6136 28.4573L34.502 28.1066C34.7804 27.9968 35.0006 27.7764 35.1103 27.498L35.4608 26.6088C35.8201 25.6968 37.1099 25.6968 37.4693 26.6088L37.8197 27.498C37.9294 27.7764 38.1497 27.9968 38.428 28.1066L39.3165 28.4573Z" fill="#1C274C"/>
</svg>
